<svg width="25" height="24" viewBox="0 0 25 24" fill="none" xmlns="http://www.w3.org/2000/svg">
<g clip-path="url(#clip0_249_1937)">
<path d="M12.3119 3.76978C10.2451 3.76978 8.56954 5.72598 8.56954 8.13908C8.56954 9.81264 9.37546 11.2661 10.5589 12L9.18656 12.636L5.53458 14.3298C5.18178 14.5062 5.0057 14.8054 5.0057 15.2287V19.2508C5.03472 19.7536 5.33644 20.2223 5.82562 20.2303H18.818C19.3765 20.1817 19.659 19.7319 19.6645 19.2508V15.2287C19.6645 14.8054 19.4884 14.5062 19.1357 14.3298L15.6159 12.636L14.1531 11.943C15.288 11.1926 16.0544 9.77056 16.0544 8.1391C16.0543 5.72598 14.3788 3.76978 12.3119 3.76978ZM6.27546 5.30626C5.386 5.34004 4.68108 5.72492 4.14552 6.33818C3.55312 7.07654 3.26432 7.95318 3.25874 8.82526C3.29512 10.1148 3.87212 11.3356 4.89932 11.9742L0.79826 13.88C0.516 13.9858 0.375 14.2327 0.375 14.6208V17.8488C0.39704 18.2769 0.61932 18.6367 1.0361 18.6429H3.76178V15.2287C3.80688 14.316 4.23552 13.5782 5.0057 13.2181L7.73064 11.9218C7.94232 11.7983 8.14526 11.6304 8.3393 11.4187C7.21578 9.68521 7.05976 7.60892 7.78384 5.78272C7.3129 5.4945 6.78364 5.30928 6.27546 5.30626ZM18.4472 5.30626C17.8655 5.31844 17.328 5.53264 16.8864 5.83514C17.5907 7.67788 17.3965 9.75546 16.3568 11.3655C16.5861 11.6301 16.8248 11.8331 17.0718 11.9742L19.6911 13.2181C20.4891 13.6557 20.9005 14.4001 20.9084 15.2288V18.6429H23.7131C24.1744 18.6031 24.371 18.2352 24.375 17.8488V14.6209C24.375 14.268 24.234 14.0211 23.9517 13.88L19.9031 11.9476C20.9531 11.1734 21.4803 10.0132 21.4905 8.82526C21.4626 7.88502 21.1754 7.01198 20.6037 6.33818C20.0064 5.6902 19.2655 5.31312 18.4472 5.30626Z" fill="#7D7D7D"/>
</g>
<defs>
<clipPath id="clip0_249_1937">
<rect width="24" height="24" fill="white" transform="translate(0.375)"/>
</clipPath>
</defs>
</svg>
