<svg width="25" height="24" viewBox="0 0 25 24" fill="none" xmlns="http://www.w3.org/2000/svg">
<g clip-path="url(#clip0_249_1926)">
<path d="M13.1356 4.74757C13.0658 4.68081 12.973 4.64355 12.8764 4.64355C12.7798 4.64355 12.687 4.68081 12.6172 4.74757L3.9875 12.9915C3.95085 13.0265 3.9217 13.0687 3.9018 13.1153C3.8819 13.162 3.87166 13.2122 3.87172 13.2629L3.87032 21.0001C3.87032 21.3979 4.02835 21.7794 4.30966 22.0607C4.59096 22.342 4.97249 22.5001 5.37032 22.5001H9.875C10.0739 22.5001 10.2647 22.4211 10.4053 22.2804C10.546 22.1398 10.625 21.949 10.625 21.7501V15.3751C10.625 15.2756 10.6645 15.1802 10.7348 15.1099C10.8052 15.0396 10.9005 15.0001 11 15.0001H14.75C14.8495 15.0001 14.9448 15.0396 15.0152 15.1099C15.0855 15.1802 15.125 15.2756 15.125 15.3751V21.7501C15.125 21.949 15.204 22.1398 15.3447 22.2804C15.4853 22.4211 15.6761 22.5001 15.875 22.5001H20.3778C20.7756 22.5001 21.1572 22.342 21.4385 22.0607C21.7198 21.7794 21.8778 21.3979 21.8778 21.0001V13.2629C21.8779 13.2122 21.8676 13.162 21.8477 13.1153C21.8278 13.0687 21.7987 13.0265 21.762 12.9915L13.1356 4.74757Z" fill="#7D7D7D"/>
<path d="M23.8864 11.4445L20.3802 8.09016V3C20.3802 2.80109 20.3011 2.61032 20.1605 2.46967C20.0198 2.32902 19.8291 2.25 19.6302 2.25H17.3802C17.1812 2.25 16.9905 2.32902 16.8498 2.46967C16.7092 2.61032 16.6302 2.80109 16.6302 3V4.5L13.9152 1.90406C13.6611 1.64719 13.2833 1.5 12.875 1.5C12.4681 1.5 12.0913 1.64719 11.8372 1.90453L1.86688 11.4436C1.57532 11.7248 1.53875 12.1875 1.80406 12.4922C1.87069 12.5691 1.95227 12.6316 2.04383 12.676C2.13539 12.7204 2.23503 12.7457 2.33668 12.7503C2.43832 12.755 2.53985 12.7389 2.63509 12.7031C2.73032 12.6672 2.81726 12.6124 2.89063 12.5419L12.6172 3.2475C12.687 3.18074 12.7798 3.14348 12.8764 3.14348C12.973 3.14348 13.0658 3.18074 13.1356 3.2475L22.8631 12.5419C23.0064 12.6793 23.1983 12.7543 23.3968 12.7504C23.5953 12.7465 23.7842 12.6641 23.922 12.5212C24.2098 12.2231 24.1859 11.7309 23.8864 11.4445Z" fill="#7D7D7D"/>
</g>
<defs>
<clipPath id="clip0_249_1926">
<rect width="24" height="24" fill="white" transform="translate(0.875)"/>
</clipPath>
</defs>
</svg>
